<svg width="1200" height="640" viewBox="0 0 1200 640" fill="none" xmlns="http://www.w3.org/2000/svg">
  <defs>
    <linearGradient id="bugCore" x1="350" y1="80" x2="880" y2="500" gradientUnits="userSpaceOnUse">
      <stop stop-color="#FF9A8B"/>
      <stop offset="0.48" stop-color="#FF4D6D"/>
      <stop offset="1" stop-color="#C1121F"/>
    </linearGradient>
    <linearGradient id="teamRed" x1="0" y1="0" x2="1" y2="0">
      <stop stop-color="#D90429"/>
      <stop offset="1" stop-color="#EF233C"/>
    </linearGradient>
    <filter id="softGlow" x="-30%" y="-30%" width="160%" height="160%">
      <feGaussianBlur stdDeviation="6" result="blur"/>
      <feMerge>
        <feMergeNode in="blur"/>
        <feMergeNode in="SourceGraphic"/>
      </feMerge>
    </filter>
  </defs>

  <rect x="0" y="0" width="1200" height="640" fill="#0B0A10"/>

  <g transform="translate(610,190)" filter="url(#softGlow)">
    <g stroke="url(#bugCore)" stroke-width="28" stroke-linecap="round" opacity="0.95">
      <line x1="-230" y1="-8" x2="-165" y2="-8"/>
      <line x1="-208" y1="-78" x2="-152" y2="-54"/>
      <line x1="-156" y1="-138" x2="-114" y2="-96"/>
      <line x1="-84" y1="-170" x2="-54" y2="-112"/>
      <line x1="230" y1="-8" x2="165" y2="-8"/>
      <line x1="208" y1="-78" x2="152" y2="-54"/>
      <line x1="156" y1="-138" x2="114" y2="-96"/>
      <line x1="84" y1="-170" x2="54" y2="-112"/>
    </g>

    <path d="M-38 -195C-55 -226 -87 -236 -114 -220" stroke="url(#bugCore)" stroke-width="14" stroke-linecap="round"/>
    <path d="M38 -195C55 -226 87 -236 114 -220" stroke="url(#bugCore)" stroke-width="14" stroke-linecap="round"/>

    <ellipse cx="0" cy="-162" rx="76" ry="56" fill="url(#bugCore)"/>
    <circle cx="-24" cy="-171" r="12" fill="#0B0A10"/>
    <circle cx="24" cy="-171" r="12" fill="#0B0A10"/>
    <circle cx="-20" cy="-175" r="3" fill="#FFF7F7"/>
    <circle cx="28" cy="-175" r="3" fill="#FFF7F7"/>
    <path d="M-16 -147C-9 -140 9 -140 16 -147" stroke="#0B0A10" stroke-width="6" stroke-linecap="round"/>
    <circle cx="-48" cy="-151" r="8" fill="#FFB3C1" opacity="0.85"/>
    <circle cx="48" cy="-151" r="8" fill="#FFB3C1" opacity="0.85"/>

    <ellipse cx="0" cy="-42" rx="112" ry="126" fill="url(#bugCore)"/>
    <path d="M0 -118C-68 -108 -103 -65 -97 -17C-78 -17 -45 -7 0 10C45 -7 78 -17 97 -17C103 -65 68 -108 0 -118Z" fill="#0B0A10"/>
    <path d="M0 10C-38 -7 -67 -17 -97 -17C-90 45 -53 87 0 120C53 87 90 45 97 -17C67 -17 38 -7 0 10Z" fill="#0B0A10"/>
    <path d="M0 10L0 120" stroke="#0B0A10" stroke-width="10" stroke-linecap="round"/>

    <g stroke="url(#bugCore)" stroke-width="12" stroke-linecap="round">
      <path d="M-108 18L-144 42L-152 68"/>
      <path d="M108 18L144 42L152 68"/>
      <path d="M-102 68L-132 92L-128 114"/>
      <path d="M102 68L132 92L128 114"/>
    </g>
  </g>

  <g transform="translate(390,430)">
    <rect x="0" y="0" width="155" height="52" rx="7" fill="#3F3F46"/>
    <rect x="155" y="0" width="270" height="52" rx="7" fill="url(#teamRed)"/>
    <text x="78" y="34" text-anchor="middle" font-family="monospace" font-size="32" fill="#F9FAFB">V2.2.0</text>
    <text x="290" y="34" text-anchor="middle" font-family="monospace" font-weight="700" font-size="30" letter-spacing="3" fill="#F8FAFC">CODEX HUNTER</text>
  </g>

  <text x="600" y="545" text-anchor="middle" font-family="Inter,Segoe UI,Arial,sans-serif" font-size="70" font-weight="700" fill="#FFF1F2">Codex Bug Bounty</text>
  <text x="600" y="592" text-anchor="middle" font-family="Inter,Segoe UI,Arial,sans-serif" font-size="24" fill="#FDA4AF">Recon · Hunt · Validate · Report</text>
</svg>
